<svg width="16" height="19" viewBox="0 0 16 19" fill="none" xmlns="http://www.w3.org/2000/svg">
<path d="M14.6366 8.42188C14.6366 13.8007 9.12737 17.1145 7.98248 17.7457C7.91906 17.7806 7.8478 17.799 7.77537 17.799C7.70294 17.799 7.63169 17.7806 7.56826 17.7457C6.42252 17.1145 0.915039 13.8007 0.915039 8.42188C0.915039 4.13391 3.48782 1.13232 7.7758 1.13232C12.0638 1.13232 14.6366 4.13391 14.6366 8.42188Z" stroke="#8D8BA7" stroke-width="1.4" stroke-linecap="round" stroke-linejoin="round"/>
<path d="M4.34546 7.99288C4.34546 8.90267 4.70687 9.7752 5.35019 10.4185C5.99352 11.0618 6.86605 11.4233 7.77584 11.4233C8.68563 11.4233 9.55816 11.0618 10.2015 10.4185C10.8448 9.7752 11.2062 8.90267 11.2062 7.99288C11.2062 7.08309 10.8448 6.21056 10.2015 5.56723C9.55816 4.92391 8.68563 4.5625 7.77584 4.5625C6.86605 4.5625 5.99352 4.92391 5.35019 5.56723C4.70687 6.21056 4.34546 7.08309 4.34546 7.99288V7.99288Z" stroke="#8D8BA7" stroke-width="1.4" stroke-linecap="round" stroke-linejoin="round"/>
</svg>
