<svg width="19" height="19" viewBox="0 0 19 19" fill="none" xmlns="http://www.w3.org/2000/svg">
<path d="M12.0273 17.3509L12.0364 17.3573C12.8234 17.8584 13.7579 18.0761 14.6854 17.9742C15.6128 17.8723 16.4778 17.4571 17.1373 16.7971L17.7103 16.2242C17.8372 16.0973 17.938 15.9466 18.0067 15.7808C18.0754 15.615 18.1108 15.4372 18.1108 15.2577C18.1108 15.0782 18.0754 14.9005 18.0067 14.7347C17.938 14.5688 17.8372 14.4182 17.7103 14.2913L15.2937 11.8765C15.1668 11.7496 15.0162 11.6489 14.8503 11.5801C14.6845 11.5114 14.5068 11.476 14.3273 11.476C14.1478 11.476 13.97 11.5114 13.8042 11.5801C13.6384 11.6489 13.4877 11.7496 13.3608 11.8765C13.1046 12.1327 12.7571 12.2766 12.3948 12.2766C12.0325 12.2766 11.6851 12.1327 11.4288 11.8765L7.56489 8.01168C7.30875 7.75546 7.16485 7.40799 7.16485 7.04569C7.16485 6.68339 7.30875 6.33592 7.56489 6.0797C7.69186 5.95282 7.79258 5.80215 7.8613 5.63633C7.93002 5.4705 7.96539 5.29276 7.96539 5.11326C7.96539 4.93376 7.93002 4.75601 7.8613 4.59019C7.79258 4.42436 7.69186 4.2737 7.56489 4.14681L5.14924 1.73207C4.89302 1.47593 4.54555 1.33203 4.18325 1.33203C3.82095 1.33203 3.47348 1.47593 3.21726 1.73207L2.64341 2.30501C1.98356 2.96465 1.5685 3.82967 1.46681 4.75713C1.36512 5.6846 1.58289 6.619 2.08413 7.40594L2.08959 7.41505C4.73678 11.3316 8.11022 14.7045 12.0273 17.3509V17.3509Z" stroke="#8D8BA7" stroke-width="1.4" stroke-linecap="round" stroke-linejoin="round"/>
</svg>
