<svg width="112" height="27" viewBox="0 0 112 27" fill="none" xmlns="http://www.w3.org/2000/svg">
<g opacity="0.9" clip-path="url(#clip0_265_1442)">
<path d="M26.1337 8.59593C27.1183 6.1026 28.0829 3.9297 28.8241 1.68109C29.2697 0.32923 29.9742 -0.0947865 31.3198 0.017013C32.7835 0.138496 34.2642 0.044596 35.9385 0.044596C34.669 3.44406 33.4608 6.66248 32.2688 9.88705C32.0555 10.4637 31.6175 10.5044 31.1167 10.5385C25.5137 10.9182 19.9105 11.295 14.3101 11.7096C13.3553 11.7803 13.2633 11.5115 13.592 10.6685C14.8092 7.54601 16.0188 4.41856 17.1211 1.25356C17.4671 0.259685 18.1473 0.237677 18.9004 0.165785C19.6819 0.0915459 20.4006 -0.127358 20.9983 0.841864C22.5716 3.39271 24.2974 5.84702 26.1337 8.59593Z" fill="#292929"/>
<path d="M77.8164 10.2738C79.1774 6.89136 80.4414 3.79003 81.6647 0.672264C81.8978 0.0777609 82.2867 0.0407878 82.7959 0.0595678C85.3425 0.153761 87.892 0.188093 90.4357 0.33129C92.5503 0.450426 94.5556 2.24743 95.0856 4.35225C95.5347 6.13518 94.3658 8.2086 92.5613 8.45597C87.7589 9.11503 82.94 9.65114 77.8164 10.2738Z" fill="#292929"/>
<path d="M74.571 11.0391C71.1634 11.5106 68.2436 11.915 64.8947 12.3783C66.7368 10.6752 68.2624 9.26439 70.1042 7.56157C66.9321 7.72208 64.1827 7.86117 61.2163 8.01112C62.2573 5.46203 63.2323 3.09781 64.1847 0.724495C64.4095 0.164618 64.801 0.0897915 65.329 0.100649C67.4402 0.144664 69.5548 0.0903784 71.6625 0.191321C73.5746 0.282873 75.1595 1.1758 76.3645 2.68054C77.2892 3.83492 77.2073 5.11988 76.6099 6.39281C76.1287 7.41837 75.3887 8.25438 74.5592 9.00323C73.929 9.5722 73.099 10.0749 74.571 11.0385V11.0391Z" fill="#292929"/>
<path d="M96.4401 19.9384C93.343 19.9323 93.3201 19.9214 94.4346 17.4727C95.3398 15.4835 96.3224 13.5304 97.2421 11.5479C97.5832 10.8129 98.0777 10.4337 98.897 10.3689C102.295 10.0995 105.694 9.81869 109.086 9.4783C110.328 9.35359 110.894 9.77203 111.108 11.0561C111.54 13.6469 112.102 16.2165 112.655 18.7849C112.833 19.6098 112.655 19.8877 111.775 19.9264C107.556 20.1119 107.561 20.1359 106.371 16.0225C106.02 14.8077 105.64 13.6011 105.266 12.393C105.126 11.9441 105.149 11.3017 104.61 11.1946C103.997 11.0728 103.923 11.7692 103.693 12.1503C102.689 13.8109 101.636 15.4503 100.762 17.181C99.7581 19.1679 98.5895 20.665 96.4401 19.9384Z" fill="#292929"/>
<path d="M66.0408 9.22037C64.9107 10.7278 63.5975 11.7114 62.4353 12.8467C62.2047 13.072 61.7884 13.2883 61.953 13.653C62.1529 14.0955 62.6129 13.8995 62.9861 13.8573C66.657 13.4397 70.3305 13.0459 73.9974 12.5946C74.8514 12.4896 75.0641 12.7704 75.0904 13.6002C75.1928 16.8447 72.8222 19.6069 69.2493 19.7908C65.178 20.0007 61.0882 19.8393 56.7915 19.8393C58.1423 16.4929 59.444 13.2739 60.7396 10.0526C60.9036 9.64439 61.1883 9.44221 61.6145 9.41345C63 9.32014 64.3789 9.07893 66.0408 9.22008V9.22037Z" fill="#292929"/>
<path d="M39.6399 9.96892C38.0079 10.0716 36.3746 10.1579 34.7446 10.2847C34.0066 10.3422 33.7864 10.169 34.1015 9.40259C35.2486 6.6123 36.3651 3.80881 37.4616 0.997388C37.7159 0.345665 38.1097 0.141726 38.7786 0.155811C42.0965 0.226236 45.415 0.272599 48.7335 0.289618C49.5054 0.293726 49.6987 0.540213 49.3399 1.22715C49.3177 1.26999 49.3003 1.31606 49.2838 1.36184C48.3626 3.9478 46.5358 5.25985 43.8032 5.298C43.2408 5.3068 42.5505 5.06648 42.1475 5.53744C41.7201 6.03658 41.3246 6.76254 41.4939 7.39695C41.6594 8.01698 42.4102 7.65107 42.8951 7.69215C43.66 7.757 44.438 7.67161 45.2006 7.74849C45.6343 7.79221 46.4496 7.40928 46.4071 8.21711C46.3733 8.86355 46.1311 9.63822 45.1133 9.66375C43.2877 9.70982 41.4649 9.8718 39.6411 9.98565C39.6408 9.97978 39.6405 9.97421 39.6399 9.96834V9.96892Z" fill="#292929"/>
<path d="M88.8192 19.9214C86.9655 20.4889 85.7952 19.4601 85.0786 17.495C84.7505 16.595 84.1742 15.7869 83.7003 14.9433C83.5203 14.6228 83.4491 14.1343 82.9599 14.1762C82.5496 14.2114 82.5288 14.6668 82.405 14.9568C81.8518 16.2499 81.2905 17.5428 80.823 18.8689C80.5296 19.7002 80.0441 19.976 79.2063 19.9367C77.9607 19.8783 76.7109 19.902 75.463 19.9185C74.6865 19.9288 74.2508 19.7993 74.6628 18.8463C75.4902 16.9322 76.2653 14.9943 77.0259 13.0518C77.2973 12.359 77.7533 12.1462 78.4555 12.0899C81.467 11.8487 84.4751 11.562 87.482 11.2671C88.2993 11.187 88.7654 11.388 89.086 12.2709C89.8639 14.4133 90.7417 16.5234 91.6843 18.5974C92.1649 19.655 91.9528 20.0015 90.8444 19.9282C90.271 19.8903 89.693 19.9214 88.8195 19.9214H88.8192Z" fill="#292929"/>
<path d="M49.3277 19.9194C47.838 19.9194 46.3477 19.8944 44.8589 19.9296C44.102 19.9475 43.9331 19.7415 44.2389 19.005C45.2631 16.5384 46.2442 14.053 47.2258 11.5684C47.3844 11.167 47.586 10.9402 48.0475 10.9062C49.9133 10.7685 51.7791 10.6221 53.6389 10.4211C54.4768 10.3304 54.3952 10.7964 54.241 11.2976C53.9835 12.1339 53.6988 12.9634 53.3814 13.7783C53.0362 14.6642 53.2862 14.9952 54.2352 15.0562C56.9782 15.2323 56.8735 15.2273 55.9581 17.8809C55.4084 19.4739 54.5971 20.1412 52.9283 19.9402C51.7436 19.7976 50.529 19.9126 49.3274 19.9126V19.9197L49.3277 19.9194Z" fill="#292929"/>
<path d="M36.1206 19.9097C34.5846 19.9097 33.0483 19.8991 31.5126 19.9144C30.7794 19.9217 30.5856 19.679 30.8711 18.9469C31.6115 17.0495 32.3235 15.139 32.9841 13.2117C33.2366 12.4746 33.734 12.268 34.3933 12.204C37.6386 11.8898 40.8834 11.5661 44.1304 11.2724C44.4521 11.2433 44.9833 10.9833 45.0609 11.5919C45.1381 12.1979 44.6682 12.2783 44.2016 12.2835C43.1936 12.295 42.1775 12.3945 41.1796 12.2985C39.7608 12.1621 39.3563 13.0544 39.074 14.1633C38.9148 14.7871 39.1246 15.0821 39.7808 15.0741C40.6924 15.063 41.6052 15.1173 42.5163 15.0923C43.4464 15.0671 43.5069 15.4295 43.219 16.2373C41.9185 19.8856 41.9394 19.8938 38.1368 19.91C37.4648 19.9129 36.7927 19.9103 36.1209 19.91L36.1206 19.9097Z" fill="#292929"/>
<path d="M4.95068 12.2571C6.63539 8.35531 8.25038 4.6225 9.85668 0.885876C10.0566 0.421072 10.3798 0.240902 10.8702 0.245597C12.2627 0.258801 13.656 0.268191 15.048 0.236794C15.8225 0.219481 15.948 0.498539 15.6697 1.19545C14.3539 4.48928 13.0583 7.79162 11.776 11.0989C11.5752 11.6169 11.2833 11.8783 10.7246 11.9071C8.86576 12.0036 7.00804 12.1301 4.95068 12.2571Z" fill="#292929"/>
<path d="M47.8237 9.39525C49.0603 6.29392 50.228 3.37627 51.3838 0.453644C51.5482 0.0384312 51.869 0.0381378 52.2081 0.0528096C53.9359 0.127636 55.6631 0.215667 57.3915 0.281397C57.9465 0.302524 58.1933 0.46186 57.9656 1.0772C57.071 3.49394 56.192 5.91656 55.3249 8.34357C55.1759 8.76084 54.9503 8.99265 54.5038 9.01672C52.353 9.13321 50.2031 9.25939 47.8237 9.39496V9.39525Z" fill="#292929"/>
<path d="M98.8735 7.59179C100.009 5.19852 101.047 3.01623 102.077 0.830417C102.274 0.413737 102.602 0.324239 103.021 0.329814C104.751 0.353289 106.482 0.379112 108.212 0.360332C108.86 0.353289 109.156 0.591853 109.268 1.24886C109.489 2.54438 109.773 3.82964 110.053 5.1143C110.19 5.74108 110.111 6.10788 109.356 6.20207C105.938 6.62843 102.526 7.10292 98.8735 7.59179Z" fill="#292929"/>
<path d="M21.8343 13.3669C25.1308 13.0861 28.0301 12.839 31.1729 12.5711C30.2957 14.901 29.5525 17 28.71 19.0572C28.3338 19.976 27.1025 20.1441 26.4536 19.3469C24.9361 17.4821 23.506 15.5439 21.8343 13.3669Z" fill="#292929"/>
<path d="M13.6236 19.9472C10.4981 19.9387 10.674 19.9921 11.5605 16.9794C12.2103 14.7713 13.3285 13.9385 15.5658 13.8485C18.8548 13.7161 18.8487 13.5615 17.7282 16.7464C17.6799 16.8838 17.6359 17.0226 17.5858 17.1593C16.3264 20.6107 17.1649 19.8472 13.6233 19.9469L13.6236 19.9472Z" fill="#292929"/>
<path d="M10.4233 14.3957C9.75497 16.151 9.20902 17.6012 8.64977 19.0464C8.43683 19.5966 8.22418 20.1371 7.46413 20.1004C6.0265 20.0309 4.58713 19.9886 3.14777 19.959C2.28704 19.9414 2.20834 19.5446 2.52052 18.843C2.95479 17.8674 3.34219 16.8703 3.75765 15.8858C3.95179 15.4254 4.19279 15.0489 4.77635 14.994C6.58113 14.8244 8.38243 14.6155 10.4233 14.3957Z" fill="#292929"/>
<path d="M52.0584 26.8521C50.2243 26.846 49.6336 25.9601 50.2863 24.1942C50.4211 23.8291 50.5918 23.4708 50.6708 23.0932C50.8909 22.0418 51.5069 21.6982 52.5366 21.7974C53.4416 21.8845 54.3616 21.7962 55.273 21.8346C55.5962 21.8481 56.1603 21.5876 56.1647 22.2123C56.1687 22.7833 55.6913 22.8411 55.2174 22.8253C54.5937 22.8044 53.9684 22.8244 53.3438 22.8247C52.9897 22.8247 52.6 22.869 52.5728 23.2948C52.5383 23.8338 53.0122 23.6393 53.3068 23.7112C53.9415 23.8658 55.1367 23.3291 55.1234 24.0876C55.1046 25.1563 53.8961 24.4955 53.2223 24.6604C52.8577 24.7496 52.4539 24.705 52.1096 24.8347C51.949 24.8952 51.8095 25.2229 51.7997 25.436C51.7852 25.7505 52.0873 25.7655 52.3242 25.7696C52.9006 25.7802 53.4792 25.7497 54.0529 25.7913C54.3318 25.8116 54.8237 25.5839 54.8188 26.1344C54.815 26.5437 54.5624 26.8594 54.0755 26.8539C53.4031 26.8462 52.7304 26.8518 52.0578 26.8518L52.0584 26.8521Z" fill="#292929"/>
<path d="M10.752 26.9193C9.67954 26.8903 9.21344 26.2242 9.51578 25.1528C9.89479 23.8101 11.2222 22.8969 12.6326 23.2129C13.3229 23.3675 13.6105 23.2622 13.7613 22.6122C13.9765 21.6841 14.7267 21.6204 15.3349 21.8939C15.9827 22.185 15.3204 22.7105 15.2568 23.1304C15.2139 23.4127 15.067 23.6789 14.9674 23.9524C14.2258 25.9865 12.8209 26.9755 10.752 26.9193ZM12.293 24.1569C11.5856 24.2575 11.2795 24.7341 11.1875 25.3333C11.1238 25.747 11.4554 25.958 11.8217 25.9078C12.4628 25.8204 12.8204 25.3711 12.8849 24.7438C12.926 24.345 12.6549 24.146 12.293 24.1569Z" fill="#292929"/>
<path d="M103.496 23.1475C104.293 23.6792 104.64 23.1645 104.911 22.3517C105.167 21.5843 105.884 21.7049 106.367 21.9059C106.976 22.1592 106.423 22.648 106.344 23.0195C106.265 23.3957 106.093 23.7516 105.961 24.1161C104.893 27.0546 104.72 27.1678 101.666 26.9079C100.68 26.8239 100.336 26.257 100.523 25.3098C100.776 24.0313 102.074 23.0477 103.496 23.1475ZM103.945 24.8515C103.988 24.391 103.745 24.1557 103.379 24.1586C102.697 24.1642 102.402 24.676 102.256 25.2558C102.155 25.6566 102.4 25.9278 102.794 25.9064C103.449 25.8706 103.768 25.4031 103.945 24.8515H103.945Z" fill="#292929"/>
<path d="M110.259 24.2367C109.095 23.5351 108.204 24.7901 107.32 24.1258C108.024 23.1618 110.677 22.7079 111.523 23.4394C111.659 23.5565 111.813 23.7484 111.817 23.9095C111.837 24.7141 111.356 25.3788 111.164 26.1264C110.876 27.2471 110.125 26.8653 109.454 26.6749C108.942 26.5299 108.532 26.8914 108.057 26.8897C107.363 26.887 106.409 27.1693 106.248 26.2192C106.098 25.3374 106.964 25.0645 107.691 24.9151C108.47 24.7552 109.277 24.7162 110.259 24.2367Z" fill="#292929"/>
<path d="M85.3085 24.4327C84.3717 23.5187 83.4765 24.7846 82.5825 24.1179C83.2781 23.1912 85.7575 22.7205 86.6666 23.3755C86.8144 23.482 86.9871 23.6504 87.0155 23.8139C87.1561 24.6317 86.6174 25.2898 86.4597 26.039C86.2034 27.2576 85.4199 26.7676 84.6882 26.7098C84.089 26.6625 83.4742 26.8826 82.8629 26.9096C82.2921 26.9349 81.5653 26.9557 81.4831 26.2048C81.4122 25.556 81.9727 25.1681 82.5669 25.0187C83.4728 24.791 84.3937 24.6249 85.3085 24.4327Z" fill="#292929"/>
<path d="M41.3599 24.1833C40.3392 23.4955 39.3824 24.7887 38.4745 24.0964C39.3723 23.1786 41.5633 22.7745 42.5591 23.3179C42.9341 23.5225 43.1762 23.8144 43.042 24.2552C42.816 24.9955 42.5588 25.7268 42.2857 26.4507C42.2281 26.6036 42.0048 26.8401 41.9275 26.8154C40.6108 26.392 39.2898 27.1857 37.9989 26.8098C37.211 26.5807 37.253 26.0299 37.748 25.4815C38.204 24.9765 38.8379 24.9512 39.4492 24.8227C40.0626 24.6936 40.7624 24.7485 41.3599 24.1833Z" fill="#292929"/>
<path d="M63.5519 26.1443C62.517 26.9527 61.4248 27.007 60.3202 26.8856C58.9853 26.7388 58.5374 25.7599 59.2335 24.6091C60.0103 23.325 62.4435 22.6662 63.7524 23.3731C64.2926 23.6648 64.4795 24.0932 64.3771 24.6965C64.2607 25.3814 63.7657 25.3198 63.2808 25.3186C62.6113 25.3168 61.9416 25.3259 61.2721 25.3391C61.0293 25.3438 60.7305 25.3896 60.729 25.6766C60.727 26.0208 61.0212 26.1602 61.3346 26.1379C62.0208 26.0889 62.6906 25.62 63.5516 26.144L63.5519 26.1443Z" fill="#292929"/>
<path d="M18.1161 23.082C17.8256 23.8855 17.6434 24.3283 17.5074 24.7851C17.407 25.1226 17.0708 25.5563 17.604 25.7814C18.0698 25.978 18.4503 25.6936 18.6629 25.2755C18.8808 24.8473 19.0694 24.3943 19.1982 23.9315C19.4334 23.0882 20.0974 23.0533 20.6804 23.2387C21.48 23.4931 20.8097 24.0331 20.7206 24.4072C20.5759 25.0146 20.3028 25.5909 20.0844 26.1804C19.9822 26.456 19.8471 26.8547 19.5616 26.7949C18.3591 26.5422 17.1776 26.9783 15.9911 26.833C15.7095 26.7987 15.4295 26.5642 15.4269 26.2485C15.4182 25.2491 15.8768 24.3679 16.3055 23.5222C16.6331 22.8763 17.3404 23.3579 18.1161 23.082Z" fill="#292929"/>
<path d="M5.48065 23.2569C6.06912 23.7569 6.81326 23.2314 7.57938 23.1466C8.75228 23.0169 9.13881 23.5524 8.75864 24.7218C8.57869 25.2755 8.35794 25.8163 8.14615 26.3591C7.8768 27.0502 7.25997 26.931 6.79214 26.8063C6.07665 26.6156 6.62636 26.1194 6.68451 25.7611C6.72241 25.5258 6.84566 25.3051 6.92869 25.0768C7.02938 24.8001 7.14655 24.4993 6.83177 24.2989C6.49066 24.0821 6.18456 24.247 5.92909 24.4943C5.4928 24.9166 5.32875 25.5014 5.17889 26.0513C4.92313 26.9906 4.20012 27.0241 3.59457 26.7893C2.87735 26.5111 3.55869 25.9727 3.64173 25.576C3.76006 25.0111 4.03665 24.4823 4.21805 23.9289C4.39367 23.3922 4.70932 23.109 5.48065 23.2569Z" fill="#292929"/>
<path d="M92.9858 26.8459C91.2408 26.8542 90.6728 26.0199 91.2817 24.3432C91.514 23.7047 91.7753 23.0767 91.9963 22.4344C92.29 21.5811 93.0031 21.7299 93.5618 21.866C94.4147 22.0741 93.7201 22.6181 93.6796 23.0157C93.6651 23.1574 93.6 23.2954 93.55 23.4318C93.0519 24.7853 93.5054 25.5289 94.9103 25.6625C95.2005 25.6907 95.6799 25.5143 95.5975 26.0974C95.5411 26.4959 95.3385 26.8412 94.856 26.8445C94.2328 26.8489 93.6093 26.8459 92.9858 26.8459Z" fill="#292929"/>
<path d="M80.631 25.7168C79.6149 26.855 77.6898 27.3154 76.4761 26.718C75.8231 26.3967 75.5803 25.904 75.7982 25.164C76.2961 23.4735 79.4014 22.4194 80.8167 23.4758C81.0149 23.6237 81.2108 23.7816 81.1798 24.0574C81.1422 24.3928 80.8431 24.3394 80.6261 24.3849C80.1999 24.4741 79.818 24.4785 79.3941 24.2209C78.7646 23.8382 78.1868 24.0956 77.7682 24.6713C77.5382 24.9876 77.316 25.3629 77.6082 25.7373C77.8746 26.0789 78.2863 26.1379 78.6535 25.9287C79.29 25.566 79.9106 25.2834 80.6313 25.7171L80.631 25.7168Z" fill="#292929"/>
<path d="M26.3516 23.8115C25.4021 24.5809 24.4366 23.5096 23.4434 24.0815C23.9401 24.6484 24.5526 24.4943 25.0566 24.632C25.4348 24.7353 25.8358 24.8242 25.9567 25.2546C26.0999 25.7652 25.7507 26.0942 25.3919 26.3292C24.2208 27.0965 22.9426 27.0672 21.6531 26.7268C21.386 26.6564 21.1106 26.4551 21.1867 26.1018C21.2544 25.7869 21.5634 25.8984 21.7783 25.8371C22.3931 25.6619 22.8699 26.0865 23.4176 26.1901C23.6873 26.2412 24.0637 26.2259 24.1574 25.8999C24.2894 25.4416 23.8507 25.5399 23.6144 25.4586C23.5247 25.4278 23.4182 25.441 23.3331 25.4025C22.7753 25.1513 21.7647 25.4078 21.8431 24.4183C21.9094 23.5829 22.7334 23.2942 23.4567 23.2147C24.4427 23.1061 25.5201 22.8238 26.3516 23.8115Z" fill="#292929"/>
<path d="M28.5563 26.9017C27.2851 26.9956 26.871 26.5466 27.2946 25.4377C27.4743 24.9671 27.7248 24.568 27.3389 23.9741C27.0551 23.5369 29.5776 21.67 29.9049 22.0779C30.2246 22.4764 30.2552 23.1281 30.6174 23.6214C30.7662 23.8238 30.2515 24.0292 29.9587 24.1986C29.2296 24.6202 28.5413 25.164 29.5039 26.0589C29.6711 26.2145 29.6644 26.3938 29.5611 26.5728C29.2825 27.0546 28.791 26.8245 28.5563 26.9017Z" fill="#292929"/>
<path d="M68.0672 21.9764C68.4954 22.3517 67.7068 23.0072 68.5802 23.308C69.0504 23.4699 68.6476 23.9984 68.1815 24.1633C67.1608 24.5251 66.6814 25.0753 67.5748 26.0695C67.8439 26.3688 67.7073 26.6799 67.4345 26.7702C66.796 26.9818 66.0941 27.1045 65.4929 26.7142C64.9547 26.365 65.2993 25.8386 65.4179 25.3899C65.5342 24.9503 65.6997 24.6161 65.523 24.0521C65.207 23.0433 66.4497 22.982 66.9265 22.4233C67.1663 22.1421 67.6923 22.1122 68.0672 21.9764Z" fill="#292929"/>
<path d="M99.7421 21.9884C100.133 22.3875 99.313 23.1167 100.274 23.298C100.609 23.3611 100.472 23.9007 99.8555 24.1472C98.8411 24.5527 98.3722 25.0627 99.2688 26.0604C99.5135 26.3324 99.3836 26.6593 99.0905 26.767C98.452 27.0018 97.7559 27.0869 97.1596 26.7063C96.6157 26.3591 96.9843 25.8415 97.089 25.389C97.1891 24.9565 97.4252 24.6337 97.1854 24.0556C96.7569 23.0236 98.1474 23.139 98.496 22.4784C98.6577 22.1718 99.3237 22.1386 99.7421 21.9884Z" fill="#292929"/>
<path d="M0.957018 26.8292C0.0798 26.9601 -0.103918 26.6755 0.194081 25.9516C0.63732 24.8746 1.06031 23.7863 1.42919 22.6812C1.6511 22.0163 2.02721 21.7859 2.70741 21.8012C3.44025 21.8176 3.64741 21.996 3.33176 22.7384C2.87637 23.8092 2.49302 24.9134 2.1224 26.0182C1.90338 26.6705 1.58716 27.0719 0.957018 26.8292Z" fill="#292929"/>
<path d="M44.2727 26.8486C43.5682 26.9243 43.2719 26.7564 43.6113 25.9647C44.0898 24.8485 44.5108 23.7035 44.8892 22.5483C45.1643 21.7082 45.8127 21.6706 46.3879 21.8851C47.1407 22.1656 46.5027 22.7023 46.3861 23.0767C46.0679 24.0973 45.642 25.083 45.3052 26.0986C45.127 26.6355 44.8608 26.9492 44.2729 26.8489L44.2727 26.8486Z" fill="#292929"/>
<path d="M56.5473 26.8521C55.822 26.9237 55.708 26.6317 55.9673 25.9979C56.4258 24.8761 56.8815 23.7484 57.244 22.5929C57.5067 21.7557 58.1215 21.6815 58.7132 21.8666C59.5094 22.1154 58.883 22.6683 58.7664 23.0401C58.4479 24.0568 58.0272 25.0404 57.6939 26.0531C57.4969 26.652 57.1665 26.9557 56.5473 26.8521Z" fill="#292929"/>
<path d="M69.4178 26.8527C68.7703 26.9102 68.4917 26.7177 68.79 26.029C69.0393 25.453 69.2908 24.8661 69.4346 24.2578C69.6666 23.2751 70.2791 22.9852 71.1306 23.2772C71.5518 23.4215 71.8432 23.3106 72.2057 23.1991C72.4953 23.1102 72.9298 22.9473 73.0641 23.369C73.1818 23.7381 72.7904 24.1011 72.5265 24.1029C71.1511 24.1117 70.81 25.1167 70.4819 26.1487C70.3069 26.6992 69.9629 26.9325 69.4181 26.8527H69.4178Z" fill="#292929"/>
<path d="M34.9671 23.32C34.9726 23.3405 35.0084 23.4195 34.9948 23.4295C33.7915 24.3218 32.417 25.0208 32.0082 26.7089C31.937 27.0032 31.1778 26.953 30.8006 26.7978C30.2242 26.5607 30.7172 26.1429 30.7907 25.8245C30.8882 25.4034 31.1136 25.0131 31.216 24.5923C31.4854 23.4861 32.007 22.8206 33.2294 23.3376C33.826 23.59 34.3719 22.7507 34.9671 23.32Z" fill="#292929"/>
<path d="M73.5169 26.8412C72.8309 26.8858 72.4421 26.8096 72.7803 26.0551C73.0965 25.35 73.3668 24.619 73.5968 23.8799C73.8673 23.0101 74.5683 23.0847 75.1137 23.2778C75.7817 23.5143 75.1707 24.0178 75.0928 24.3646C74.9563 24.9738 74.6583 25.544 74.4673 26.1432C74.2943 26.6863 74.0062 26.9912 73.5169 26.8412Z" fill="#292929"/>
<path d="M37.3876 23.3734C37.0381 24.3162 36.6582 25.2508 36.3469 26.2083C36.061 27.0869 35.3456 26.9771 34.8115 26.789C34.1507 26.5563 34.7721 26.0578 34.8346 25.6957C34.9078 25.2719 35.1766 24.8855 35.2695 24.4624C35.5203 23.32 36.1487 22.9203 37.3876 23.3734Z" fill="#292929"/>
<path d="M36.6697 22.6589C36.604 22.643 36.1012 22.8731 36.1217 22.352C36.1457 21.7419 36.6879 21.8032 37.1112 21.8276C37.3938 21.844 37.8874 21.6454 37.7963 22.2343C37.7196 22.7293 37.2943 22.7437 36.6697 22.6589Z" fill="#292929"/>
<path d="M74.924 22.7099C74.6454 22.6507 74.1504 22.8508 74.2297 22.3094C74.3121 21.7466 74.8323 21.8226 75.2458 21.8258C75.5088 21.8279 75.8878 21.7619 75.8687 22.1718C75.8397 22.7895 75.3465 22.7158 74.924 22.7099Z" fill="#292929"/>
</g>
<defs>
<clipPath id="clip0_265_1442">
<rect width="112.655" height="27" fill="white" transform="translate(0.0615234)"/>
</clipPath>
</defs>
</svg>
