<svg width="97" height="40" viewBox="0 0 97 40" fill="none" xmlns="http://www.w3.org/2000/svg">
<path d="M20.2512 32.0692C20.756 31.3775 21.2219 30.7467 21.6795 30.1097C22.6209 28.799 23.5552 27.4827 24.4974 26.1724C25.691 24.5124 26.9083 22.869 28.0714 21.188C28.3256 20.8206 28.5814 20.7368 28.9812 20.738C32.8737 20.7488 36.7662 20.7445 40.659 20.7445H40.9781C40.9842 20.8512 40.9928 20.9327 40.993 21.0145C40.995 22.5122 40.9915 24.0099 41.0019 25.5076C41.0035 25.7308 40.9394 25.7936 40.7166 25.7932C37.4234 25.7863 34.1302 25.7916 30.837 25.7816C30.5481 25.7808 30.3757 25.8815 30.2123 26.111C28.5703 28.4167 26.9162 30.714 25.2701 33.0168C24.3466 34.309 23.434 35.6092 22.5113 36.902C21.8044 37.8924 21.0865 38.8749 20.3802 39.8658C20.2549 40.0415 20.2056 40.0509 20.0701 39.857C19.228 38.6519 18.3684 37.459 17.5135 36.2626C15.5338 33.4917 13.5546 30.7206 11.5729 27.9511C10.7567 26.8104 9.93449 25.6739 9.1153 24.5353C9.07693 24.4818 9.04241 24.4256 9.00039 24.362C9.61412 23.8529 10.2145 23.3491 10.8213 22.8531C11.475 22.3187 12.1371 21.7947 12.7898 21.2591C12.9427 21.1337 12.992 21.2416 13.0592 21.3429C13.6703 22.2661 14.2792 23.1909 14.8935 24.112C16.5392 26.5798 18.1867 29.0463 19.8359 31.512C19.9556 31.691 20.0933 31.8582 20.2516 32.0696L20.2512 32.0692Z" fill="#292929"/>
<path d="M53.3958 20.8877C53.3574 20.802 53.3387 20.697 53.2774 20.6338C51.8504 19.1581 49.8185 19.8201 49.1179 21.0824C48.8018 21.652 48.5941 22.2848 48.7368 22.9546C48.8879 23.6637 49.5266 24.1489 50.2469 24.1989C51.0308 24.2531 51.7222 23.9905 52.3922 23.6349C52.6218 23.5132 52.8399 23.3697 53.1022 23.2127C53.0472 23.4881 53.0001 23.744 52.9444 23.998C52.728 24.9862 52.5061 25.9732 52.2927 26.9622C52.2324 27.242 52.0982 27.381 51.8043 27.4876C50.737 27.8752 49.647 27.9533 48.5395 27.8169C46.6703 27.5867 44.8441 26.128 44.6506 23.953C44.5099 22.3709 44.8353 20.8891 45.6679 19.5402C46.3292 18.469 47.269 17.6804 48.3521 17.05C49.8727 16.1652 51.4991 16.0129 53.1917 16.3256C53.494 16.3815 53.7776 16.5332 54.0738 16.6286C54.2627 16.6896 54.2876 16.8117 54.2529 16.9819C54.1067 17.7006 53.9602 18.4193 53.8221 19.1396C53.722 19.6613 53.6351 20.1855 53.5405 20.7082C53.5348 20.7392 53.5131 20.7672 53.4987 20.7965C53.4644 20.8269 53.4301 20.8573 53.396 20.8875L53.3958 20.8877Z" fill="#292929"/>
<path d="M63.3274 26.2591C63.2449 26.3378 63.1597 26.4138 63.0803 26.4954C62.6466 26.9406 62.1366 27.284 61.5325 27.4083C59.8823 27.7482 58.7748 26.9765 58.5872 25.3522C58.3673 23.4474 58.8851 21.7862 60.3381 20.4913C61.0911 19.8201 61.9848 19.5663 62.9932 19.8132C63.4843 19.9335 63.8361 20.2175 64.0836 20.6495C64.1244 20.7207 64.1837 20.7812 64.2345 20.8469L64.3161 20.8289C64.3754 20.4509 64.4255 20.0711 64.4958 19.6952C64.6245 19.0079 64.7684 18.3233 64.8992 17.6364C64.97 17.2639 65.0311 16.8894 65.0878 16.5144C65.1144 16.3391 65.1785 16.2594 65.3781 16.2614C66.3571 16.2712 67.3362 16.2712 68.3152 16.2569C68.5635 16.2533 68.5974 16.3401 68.5529 16.5556C68.3773 17.4062 68.2098 18.2584 68.0446 19.1108C67.7908 20.4183 67.5411 21.7266 67.2899 23.0347C67.0611 24.2268 66.8327 25.4189 66.6052 26.6112C66.5767 26.7604 66.5402 26.9098 66.5329 27.0605C66.525 27.2224 66.4419 27.2566 66.3037 27.2544C65.3759 27.2397 64.4481 27.223 63.5202 27.2187C63.3353 27.2179 63.277 27.1551 63.3054 26.9802C63.3424 26.7522 63.3718 26.5231 63.4045 26.2943C63.3789 26.2825 63.3532 26.2707 63.3276 26.2589L63.3274 26.2591ZM63.1105 22.5114C62.9761 22.5517 62.8381 22.5829 62.708 22.6341C62.1267 22.8632 61.9407 23.542 61.9696 23.9357C62.0191 24.6133 62.643 24.9245 63.1859 24.5424C63.5621 24.2776 63.8195 23.9195 63.8855 23.4461C63.9553 22.9446 63.6144 22.5393 63.1105 22.5114Z" fill="#292929"/>
<path d="M81.175 20.7739C81.325 20.6571 81.4759 20.5415 81.6247 20.4232C82.238 19.9349 82.9182 19.6491 83.7195 19.6754C84.522 19.7017 85.099 20.0858 85.4764 20.7688C85.7192 21.2082 85.8179 21.6897 85.8384 22.2023C85.8847 23.356 85.6695 24.4462 85.0933 25.4415C84.5434 26.392 83.833 27.1961 82.6922 27.4287C81.7546 27.62 80.9314 27.4151 80.3481 26.5802C80.2876 26.4937 80.207 26.4214 80.0955 26.2982C80.0537 26.4197 80.0186 26.489 80.0062 26.5622C79.8686 27.3767 79.7362 28.1918 79.5985 29.0063C79.534 29.3888 79.4696 29.7719 79.3852 30.1501C79.3673 30.2302 79.2625 30.3507 79.1966 30.3513C78.1084 30.3632 77.0202 30.3589 75.9318 30.3577C75.9251 30.3577 75.9184 30.3479 75.8782 30.3167C75.9429 30.0194 76.0183 29.7046 76.0794 29.3872C76.3532 27.9645 76.6196 26.5402 76.8953 25.118C77.208 23.5049 77.5427 21.8958 77.831 20.2783C77.8861 19.97 77.9908 19.9229 78.2582 19.927C79.1442 19.9404 80.0308 19.939 80.917 19.9266C81.1456 19.9233 81.1969 20.0114 81.1675 20.2116C81.1417 20.3882 81.1283 20.5667 81.1094 20.7443C81.1314 20.7541 81.1533 20.7637 81.1752 20.7735L81.175 20.7739ZM81.3157 24.6625C81.5197 24.5801 81.7516 24.5347 81.9221 24.4072C82.2555 24.1581 82.4222 23.7772 82.4409 23.376C82.4553 23.069 82.3548 22.7505 82.0504 22.5733C81.7569 22.4025 81.4733 22.4624 81.1919 22.628C80.7686 22.8769 80.5856 23.2474 80.5428 23.7297C80.491 24.3128 80.7208 24.6034 81.3157 24.6625Z" fill="#292929"/>
<path d="M20.7133 24.6242C18.5871 24.7518 16.3329 22.8999 16.3327 20.338C16.3323 17.8833 18.2273 15.9599 20.8416 16.0151C22.9993 16.0606 24.9618 17.908 24.9774 20.296C24.9928 22.6351 23.002 24.7067 20.7133 24.6242Z" fill="#292929"/>
<path d="M94.534 25.0348C94.3787 25.2615 94.2669 25.4586 94.1235 25.6289C93.0948 26.8495 91.7902 27.4652 90.1849 27.4705C89.4021 27.4732 88.6545 27.3835 87.9685 26.9857C86.6649 26.2299 86.1438 24.8698 86.5376 23.3205C86.8306 22.1686 87.5479 21.3403 88.4777 20.6556C89.5815 19.8426 90.8216 19.5596 92.1589 19.7302C93.7015 19.9268 95.0333 21.0534 95.0905 22.8571C95.1023 23.2306 94.9992 23.6082 94.9437 23.983C94.9171 24.1628 94.7813 24.1648 94.637 24.1644C93.1766 24.162 91.7161 24.163 90.2558 24.163C89.9672 24.163 89.8024 24.3068 89.7614 24.5946C89.6942 25.0666 90.0554 25.4315 90.5221 25.3524C90.783 25.3082 91.0581 25.2953 91.1683 24.9612C91.1943 24.8821 91.3971 24.8136 91.5141 24.8203C92.4561 24.8735 93.3969 24.9457 94.3381 25.0125C94.3789 25.0154 94.4195 25.0217 94.534 25.035V25.0348ZM91.066 22.5676V22.5739C91.2601 22.5739 91.4542 22.5676 91.6481 22.5756C91.8696 22.5845 91.9057 22.463 91.8686 22.2838C91.7991 21.9474 91.5801 21.7715 91.2392 21.7254C90.7487 21.6589 90.4635 21.9994 90.2852 22.2971C90.1949 22.4479 90.2361 22.5625 90.4334 22.5668C90.6441 22.5715 90.8551 22.5678 91.066 22.5678V22.5676Z" fill="#292929"/>
<path d="M75.8851 25.0313C75.5879 25.5899 75.2277 26.0487 74.7591 26.3957C73.128 27.6036 71.3437 27.8493 69.4881 27.0361C68.4762 26.5926 67.9287 25.7229 67.8728 24.5917C67.8052 23.2186 68.2584 22.0441 69.2893 21.1295C70.3109 20.2232 71.4795 19.6517 72.8879 19.7164C73.2326 19.7321 73.5818 19.7251 73.9206 19.7806C75.1191 19.9767 76.2672 21.0962 76.4286 22.2971C76.4982 22.8145 76.4024 23.3546 76.3762 23.8841C76.365 24.1092 76.2322 24.1681 76.0168 24.1669C74.548 24.1589 73.0791 24.1624 71.61 24.1626C71.2552 24.1626 71.2085 24.2089 71.192 24.5695C71.1766 24.9069 71.3536 25.2488 71.5871 25.3326C71.8728 25.435 72.3022 25.2817 72.5206 25.0678C72.6465 24.9444 72.8538 24.8274 73.0192 24.8344C73.9107 24.8713 74.8007 24.9477 75.6912 25.0109C75.7397 25.0144 75.7878 25.0211 75.8847 25.0313H75.8851ZM73.2348 22.5703C73.245 22.2795 73.2994 22.0061 73.0732 21.8257C72.6889 21.5191 71.806 21.8547 71.6963 22.3374C71.671 22.4492 71.659 22.5691 71.8295 22.5697C72.29 22.5717 72.7502 22.5703 73.2348 22.5703Z" fill="#292929"/>
<path d="M20.9842 0C21.404 0.593493 21.805 1.1668 22.2124 1.73522C23.2415 3.17053 24.2766 4.60136 25.3032 6.0383C26.212 7.3101 27.1105 8.58883 28.0172 9.86206C28.5662 10.6327 29.1239 11.3971 29.6747 12.1663C30.5796 13.4302 31.4798 14.6977 32.3881 15.9591C32.5142 16.134 32.503 16.2209 32.3205 16.3607C31.2544 17.1768 30.2034 18.0125 29.1456 18.8393C28.848 19.0719 28.5445 19.2968 28.2174 19.5449C28.0079 19.2246 27.8175 18.9292 27.623 18.6364C26.2337 16.5462 24.846 14.4546 23.4527 12.3673C22.6881 11.2217 21.9128 10.0835 21.1429 8.94134C20.959 8.66834 20.91 8.66467 20.7164 8.93502C19.752 10.2814 18.7911 11.6303 17.8255 12.9759C16.6287 14.6438 15.427 16.3083 14.2306 17.9765C13.8319 18.5324 13.4362 19.0911 13.0517 19.6568C12.9335 19.8307 12.7961 19.9003 12.59 19.9001C9.01785 19.8962 5.44548 19.8966 1.87331 19.8962C1.33348 19.8962 0.793642 19.8909 0.254011 19.8995C0.0846905 19.9021 0.0148505 19.8605 0.0152565 19.6748C0.0201291 18.0077 0.018302 16.3405 0.0122113 14.6734C0.0116023 14.4938 0.075554 14.4424 0.249341 14.4428C3.23884 14.4489 6.22833 14.45 9.21782 14.4516C9.61473 14.4518 10.0125 14.4648 10.4077 14.4394C10.5379 14.431 10.708 14.3531 10.7813 14.2508C11.8924 12.6984 12.9867 11.1341 14.0934 9.57846C14.7447 8.66304 15.4145 7.76108 16.0692 6.84811C16.783 5.85297 17.4879 4.85131 18.1987 3.85393C19.0958 2.59498 19.995 1.33765 20.8944 0.080125C20.9127 0.0544361 20.9421 0.0369022 20.9842 0ZM20.9484 0.556591C20.8847 0.632434 20.8388 0.679735 20.8012 0.732743C19.7961 2.15338 18.7942 3.57625 17.7866 4.99505C16.8669 6.29009 15.9399 7.58003 15.0182 8.87385C13.6796 10.7524 12.3403 12.6301 11.0095 14.514C10.8548 14.7329 10.6678 14.8208 10.4144 14.8196C9.86587 14.8169 9.31751 14.8196 8.76894 14.8196C6.11728 14.8196 3.46541 14.8198 0.813741 14.82C0.712433 14.82 0.610922 14.8247 0.509817 14.8196C0.381507 14.8133 0.332377 14.862 0.332986 14.9968C0.338468 16.4101 0.340903 17.8231 0.337249 19.2364C0.33664 19.455 0.416224 19.5296 0.636502 19.5294C4.58873 19.5239 8.54095 19.5264 12.4932 19.5168C12.6146 19.5166 12.7792 19.4371 12.8503 19.3402C13.4805 18.4827 14.0944 17.6131 14.7122 16.7465C15.6731 15.398 16.6312 14.0473 17.5943 12.7005C18.4346 11.5255 19.2804 10.3544 20.1235 9.18151C20.3982 8.79944 20.6717 8.41655 20.9779 7.98902C21.0286 8.06425 21.0617 8.11196 21.0936 8.16048C21.5979 8.93074 22.0989 9.70303 22.6069 10.471C23.6088 11.9861 24.616 13.4974 25.6179 15.0123C26.4708 16.3018 27.3231 17.5917 28.1658 18.8878C28.2814 19.0654 28.3695 19.0132 28.4868 18.9196C28.9818 18.5245 29.4747 18.1263 29.9729 17.7351C30.6104 17.2343 31.2518 16.7387 31.8927 16.2425C32.0013 16.1583 32.0797 16.0942 31.9654 15.9377C31.1886 14.8738 30.4184 13.8051 29.652 12.7337C28.4919 11.1116 27.3385 9.48488 26.1787 7.86261C25.4809 6.88664 24.7727 5.91842 24.0758 4.94183C23.2513 3.78665 22.4345 2.62576 21.6127 1.46854C21.3995 1.16843 21.1799 0.873216 20.9488 0.55598L20.9484 0.556591Z" fill="#292929"/>
<path d="M58.2983 19.5255C58.266 19.7133 58.2431 19.8607 58.2149 20.0071C57.793 22.2021 57.3705 24.3968 56.9474 26.5914C56.9186 26.7404 56.8567 26.8878 56.8552 27.0362C56.853 27.2758 56.7466 27.3302 56.5259 27.3282C55.5551 27.319 54.584 27.3254 53.613 27.3264C53.3085 27.3266 53.2796 27.2903 53.3415 26.9894C53.4808 26.3125 53.6246 25.6364 53.7573 24.9581C54.0684 23.3705 54.3735 21.7815 54.6831 20.1936C54.7257 19.9747 54.7136 19.6799 54.8492 19.5635C54.9779 19.453 55.2674 19.5272 55.4861 19.5266C56.3219 19.5247 57.1579 19.5255 57.9938 19.5255C58.0835 19.5255 58.1733 19.5255 58.2981 19.5255H58.2983Z" fill="#292929"/>
<path d="M54.9278 19.0686C54.9925 18.6458 55.0488 18.2474 55.1156 17.8509C55.1911 17.4027 55.2703 16.9548 55.364 16.5104C55.376 16.4533 55.4855 16.3776 55.5502 16.377C56.5889 16.3678 57.6275 16.3744 58.666 16.3646C58.8997 16.3623 58.884 16.4837 58.854 16.6402C58.7143 17.3697 58.5754 18.0992 58.4366 18.8287C58.4226 18.9029 58.411 18.9775 58.3954 19.0686H54.9276H54.9278Z" fill="#292929"/>
<path d="M96.0224 18.7188C95.9306 18.6574 95.8216 18.6111 95.7507 18.531C95.6344 18.3991 95.5593 18.228 95.4349 18.1067C95.3496 18.0238 95.2097 17.9973 95.0944 17.9455C95.0605 18.0603 95.0124 18.173 94.9965 18.2902C94.9795 18.4154 94.9927 18.5447 94.9927 18.7145C94.8006 18.5589 94.7752 17.8421 94.8847 17.0782C95.0386 17.046 95.2004 17.0115 95.3626 16.9787C95.6365 16.9232 95.8003 17.078 95.899 17.2977C95.9913 17.5033 95.8943 17.6788 95.7266 17.8062C95.5792 17.9181 95.6458 18.0317 95.7167 18.1347C95.8334 18.3041 95.9656 18.4629 96.091 18.626C96.0681 18.657 96.0453 18.688 96.0224 18.7188ZM94.9969 17.4519C95.0061 17.607 94.9657 17.7846 95.1967 17.7946C95.4127 17.804 95.7238 17.5679 95.724 17.4003C95.724 17.2621 95.4742 17.0998 95.2542 17.0916C94.9756 17.0812 95.0197 17.2926 94.9967 17.4517L94.9969 17.4519Z" fill="#292929"/>
<path d="M93.8109 17.8986C93.9065 18.4554 94.0977 18.8733 94.5525 19.1384C94.989 19.3928 95.4407 19.4717 95.9298 19.3086C94.9884 19.8501 93.7148 18.8809 93.8109 17.8986Z" fill="#292929"/>
<path d="M95.4079 16.2675C94.6729 16.2975 93.9808 16.7514 93.7989 17.7116C93.7378 17.0431 94.4721 16.1681 95.4079 16.2675Z" fill="#292929"/>
<path d="M96.828 17.29C96.8777 17.5024 96.9713 17.7155 96.9687 17.9271C96.9626 18.3983 96.749 18.7838 96.3627 19.0715C96.8779 18.5671 97.0541 17.9777 96.8335 17.2843L96.828 17.29Z" fill="#292929"/>
<path d="M96.8335 17.2843C96.6196 16.9221 96.2665 16.595 95.7741 16.3032C96.1509 16.2667 96.7817 16.8568 96.8284 17.2896C96.828 17.29 96.8335 17.2843 96.8335 17.2843Z" fill="#292929"/>
</svg>
