<svg width="19" height="15" viewBox="0 0 19 15" fill="none" xmlns="http://www.w3.org/2000/svg">
<path d="M18.1091 2.91528V11.2486C18.1091 11.8012 17.8896 12.3311 17.4989 12.7218C17.1082 13.1125 16.5783 13.3319 16.0257 13.3319H3.52572C2.97318 13.3319 2.44328 13.1125 2.05258 12.7218C1.66188 12.3311 1.44238 11.8012 1.44238 11.2486V2.91528" stroke="#8D8BA7" stroke-width="1.4" stroke-linecap="round" stroke-linejoin="round"/>
<path d="M18.1091 2.91536C18.1091 2.36283 17.8896 1.83293 17.4989 1.44223C17.1082 1.05152 16.5783 0.832031 16.0257 0.832031H3.52572C2.97318 0.832031 2.44328 1.05152 2.05258 1.44223C1.66188 1.83293 1.44238 2.36283 1.44238 2.91536L8.67155 7.42925C9.00266 7.6362 9.38526 7.74592 9.77572 7.74592C10.1662 7.74592 10.5488 7.6362 10.8799 7.42925L18.1091 2.91536Z" stroke="#8D8BA7" stroke-width="1.4" stroke-linecap="round" stroke-linejoin="round"/>
</svg>
