<svg width="274" height="60" viewBox="0 0 274 60" fill="none" xmlns="http://www.w3.org/2000/svg">
<path d="M133.955 14.7922C133.955 14.7922 180.933 -5.45033 237.46 1.42451C253.119 3.71611 266.869 5.24386 272.98 14.7922C277.181 24.7226 265.786 30.1104 230.585 40C230.585 40 248.918 29.6877 240.515 22.049C232.112 14.4103 208.814 8.25914 178.26 9.06321C163.746 9.44515 133.955 14.7922 133.955 14.7922Z" fill="#4BA978"/>
<path d="M133.955 14.7922C133.955 14.7922 178.26 -3.06558 229.821 4.47995C245.48 6.77156 258.561 10.5909 261.903 15.938C265.245 21.2851 265.786 30.1103 230.585 39.9999C230.585 39.9999 248.918 29.6877 240.515 22.049C232.112 14.4103 208.814 8.2591 178.26 9.06317C163.746 9.44511 133.955 14.7922 133.955 14.7922Z" fill="#FFEC59"/>
<path d="M133.955 14.7923C133.955 14.7923 167.565 0.372005 219.127 7.91754C234.786 10.2091 241.661 12.1188 247.772 16.3201C249.3 17.5205 265.341 28.1601 230.585 40.0001C230.585 40.0001 248.918 29.6878 240.515 22.0491C232.112 14.4104 208.814 8.25923 178.26 9.06331C163.746 9.44524 133.955 14.7923 133.955 14.7923Z" fill="#FF716F"/>
<path d="M2.21349 21.805H3.09888L6.22381 33.9662H6.30844L13.4632 21.805H14.3486L12.1351 35.138H11.3539L13.2549 23.7385H13.1768L6.45167 35.138H5.68346L2.76035 23.7385H2.68223L0.781231 35.138H0L2.21349 21.805Z" fill="white"/>
<path d="M15.8042 35.138L18.0177 21.805H25.4394L25.3092 22.5602H18.7013L17.7899 28.0874H24.0007L23.8705 28.8426H17.6597L16.7482 34.3828H23.5124L23.3822 35.138H15.8042Z" fill="white"/>
<path d="M27.6144 22.5602L27.7446 21.805H37.0869L36.9567 22.5602H32.6924L30.6092 35.138H29.7954L31.8787 22.5602H27.6144Z" fill="white"/>
<path d="M35.5836 35.138H34.7242L41.7488 21.805H42.6863L45.2839 35.138H44.4245L42.0873 22.8531H42.0157L35.5836 35.138ZM37.6408 30.1186H44.0469L43.9167 30.8738H37.5106L37.6408 30.1186Z" fill="white"/>
<path d="M47.5875 35.138L49.801 21.805H50.6147L48.5315 34.3828H55.0417L54.9115 35.138H47.5875Z" fill="white"/>
<path d="M68.9596 21.805H69.7734L68.3151 30.6329C68.1675 31.54 67.8247 32.3494 67.2865 33.0612C66.7483 33.7687 66.0734 34.3286 65.2618 34.7409C64.4545 35.1489 63.5691 35.3528 62.6056 35.3528C61.6551 35.3528 60.8435 35.1489 60.1708 34.7409C59.498 34.3286 59.0098 33.7665 58.706 33.0547C58.4021 32.3429 58.324 31.5357 58.4716 30.6329L59.9299 21.805H60.7437L59.2919 30.5873C59.166 31.3555 59.2246 32.0391 59.4677 32.6381C59.7107 33.237 60.1078 33.7101 60.659 34.0573C61.2102 34.4002 61.8895 34.5716 62.6968 34.5716C63.4997 34.5716 64.2419 34.4002 64.9233 34.0573C65.609 33.7101 66.1797 33.237 66.6355 32.6381C67.0912 32.0391 67.3798 31.3555 67.5013 30.5873L68.9596 21.805ZM64.6954 20.3792L66.9154 17.5017H67.8789L65.4376 20.3792H64.6954Z" fill="white"/>
<path d="M71.229 35.138L73.4425 21.805H77.5505C78.3925 21.805 79.0891 21.9699 79.6403 22.2998C80.1958 22.6253 80.5864 23.081 80.8121 23.6669C81.0422 24.2529 81.0942 24.9321 80.9684 25.7046C80.8382 26.4685 80.5626 27.1412 80.1416 27.7228C79.7206 28.3001 79.1802 28.7514 78.5205 29.077C77.8652 29.4025 77.1165 29.5652 76.2745 29.5652H72.5897L72.7134 28.8035H76.3786C77.0601 28.8035 77.6655 28.6755 78.195 28.4194C78.7289 28.1633 79.1629 27.8031 79.4971 27.3387C79.8356 26.8743 80.0569 26.3296 80.1611 25.7046C80.2653 25.0666 80.2262 24.5133 80.0439 24.0445C79.8616 23.5714 79.547 23.2069 79.0999 22.9508C78.6529 22.6904 78.0865 22.5602 77.4008 22.5602H74.1261L72.0428 35.138H71.229ZM77.7132 29.0965L79.9853 35.138H79.0674L76.8083 29.0965H77.7132Z" fill="white"/>
<path d="M93.301 25.9716C93.2793 25.5115 93.1904 25.0688 93.0341 24.6435C92.8779 24.2181 92.6478 23.8384 92.344 23.5042C92.0402 23.1656 91.6561 22.8987 91.1917 22.7034C90.7316 22.5038 90.1848 22.4039 89.5511 22.4039C88.6874 22.4039 87.8476 22.6383 87.0316 23.107C86.22 23.5758 85.5148 24.2615 84.9158 25.1643C84.3212 26.067 83.9132 27.1694 83.6919 28.4715C83.4836 29.7171 83.5009 30.7935 83.744 31.7006C83.9914 32.6077 84.4384 33.3086 85.0851 33.8034C85.7318 34.2938 86.5499 34.5391 87.5395 34.5391C88.4031 34.5391 89.2082 34.3351 89.9548 33.9271C90.7056 33.5191 91.3371 32.9397 91.8492 32.1889C92.3614 31.4337 92.6977 30.5396 92.8583 29.5066L93.1187 29.6433H88.5876L88.7243 28.8882H93.7698L93.633 29.6433C93.4421 30.8195 93.0493 31.833 92.4547 32.6836C91.8644 33.53 91.1353 34.181 90.2673 34.6367C89.4035 35.0924 88.4617 35.3203 87.4418 35.3203C86.296 35.3203 85.3433 35.0382 84.5838 34.474C83.8243 33.9054 83.2948 33.1068 82.9953 32.0782C82.6958 31.0496 82.6611 29.8473 82.8911 28.4715C83.0604 27.4385 83.349 26.5032 83.757 25.6656C84.1693 24.8236 84.6728 24.1009 85.2674 23.4977C85.8663 22.8944 86.5369 22.4321 87.279 22.111C88.0212 21.7855 88.8068 21.6227 89.6357 21.6227C90.3996 21.6227 91.0615 21.7486 91.6214 22.0003C92.1856 22.2477 92.6522 22.5819 93.0211 23.0029C93.3943 23.4195 93.6721 23.8861 93.8544 24.4026C94.041 24.9147 94.1343 25.4377 94.1343 25.9716H93.301Z" fill="white"/>
<path d="M98.8825 21.805L96.6691 35.138H95.8553L98.0687 21.805H98.8825Z" fill="white"/>
<path d="M111.992 25.9716H111.171C111.163 25.5202 111.074 25.084 110.904 24.663C110.739 24.2377 110.499 23.8557 110.182 23.5172C109.865 23.1743 109.476 22.9031 109.016 22.7034C108.556 22.5038 108.027 22.4039 107.428 22.4039C106.547 22.4039 105.698 22.6405 104.882 23.1136C104.066 23.5823 103.361 24.2702 102.766 25.1773C102.176 26.0844 101.775 27.1933 101.562 28.5041C101.341 29.8148 101.375 30.9194 101.666 31.8178C101.957 32.7119 102.428 33.3889 103.079 33.849C103.734 34.309 104.498 34.5391 105.371 34.5391C105.974 34.5391 106.542 34.4414 107.076 34.2461C107.61 34.0465 108.092 33.7774 108.522 33.4388C108.956 33.096 109.329 32.7119 109.641 32.2865C109.954 31.8612 110.19 31.4228 110.351 30.9714H111.184C110.998 31.5096 110.724 32.037 110.364 32.5534C110.008 33.0699 109.578 33.5387 109.075 33.9597C108.571 34.3763 108.003 34.7083 107.369 34.9557C106.736 35.1988 106.045 35.3203 105.299 35.3203C104.188 35.3203 103.253 35.036 102.493 34.4675C101.734 33.8945 101.198 33.0916 100.885 32.0587C100.577 31.0257 100.538 29.8191 100.768 28.4389C100.994 27.0675 101.428 25.8717 102.07 24.8518C102.717 23.8275 103.506 23.0333 104.44 22.469C105.377 21.9048 106.399 21.6227 107.506 21.6227C108.257 21.6227 108.912 21.7464 109.472 21.9938C110.032 22.2368 110.496 22.5667 110.865 22.9833C111.239 23.3957 111.518 23.8601 111.705 24.3765C111.892 24.893 111.987 25.4247 111.992 25.9716Z" fill="white"/>
<path d="M112.931 35.138H112.072L119.096 21.805H120.034L122.632 35.138H121.772L119.435 22.8531H119.363L112.931 35.138ZM114.988 30.1186H121.395L121.264 30.8738H114.858L114.988 30.1186Z" fill="white"/>
<path d="M138.331 21.8051H141.118L139.581 31.1213C139.434 31.985 139.121 32.7315 138.644 33.3608C138.166 33.9858 137.561 34.4697 136.827 34.8126C136.094 35.1511 135.276 35.3204 134.373 35.3204C133.561 35.3204 132.85 35.1772 132.238 34.8907C131.63 34.6043 131.181 34.1702 130.89 33.5887C130.604 33.0071 130.532 32.2736 130.675 31.3882H133.462C133.418 31.7484 133.44 32.0522 133.527 32.2996C133.618 32.547 133.772 32.7358 133.989 32.866C134.206 32.9962 134.477 33.0613 134.803 33.0613C135.154 33.0613 135.467 32.9854 135.74 32.8335C136.014 32.6816 136.239 32.458 136.417 32.1629C136.599 31.8678 136.728 31.5076 136.801 31.0822L138.331 21.8051Z" fill="white"/>
<path d="M141.051 35.1381L143.265 21.8051H146.084L145.172 27.3063H150.895L151.806 21.8051H154.619L152.405 35.1381H149.593L150.504 29.6304H144.782L143.87 35.1381H141.051Z" fill="white"/>
<path d="M167.879 28.6539C167.636 30.0775 167.165 31.2862 166.466 32.2801C165.772 33.274 164.924 34.0292 163.921 34.5457C162.923 35.0622 161.846 35.3204 160.692 35.3204C159.481 35.3204 158.437 35.0448 157.56 34.4936C156.688 33.9424 156.057 33.146 155.666 32.1043C155.275 31.0583 155.202 29.7975 155.445 28.3219C155.679 26.8939 156.146 25.683 156.844 24.6891C157.543 23.6909 158.396 22.9314 159.403 22.4105C160.41 21.8854 161.493 21.6228 162.651 21.6228C163.854 21.6228 164.891 21.9006 165.763 22.4561C166.64 23.0117 167.272 23.8146 167.658 24.8649C168.048 25.9109 168.122 27.1739 167.879 28.6539ZM165.073 28.3219C165.225 27.4061 165.219 26.6379 165.054 26.0172C164.893 25.3922 164.598 24.9192 164.168 24.598C163.739 24.2768 163.196 24.1162 162.541 24.1162C161.829 24.1162 161.176 24.2942 160.581 24.6501C159.991 25.006 159.492 25.5225 159.084 26.1995C158.68 26.8722 158.4 27.6904 158.244 28.6539C158.088 29.574 158.092 30.3422 158.257 30.9585C158.426 31.5748 158.728 32.0414 159.162 32.3582C159.6 32.6707 160.145 32.827 160.796 32.827C161.503 32.827 162.15 32.6534 162.736 32.3061C163.326 31.9546 163.823 31.4446 164.227 30.7762C164.631 30.1035 164.913 29.2854 165.073 28.3219Z" fill="white"/>
<path d="M182.069 21.8051L179.855 35.1381H177.421L173.026 26.7464H172.922L171.522 35.1381H168.703L170.917 21.8051H173.391L177.766 30.1903H177.876L179.263 21.8051H182.069Z" fill="white"/>
<path d="M184.215 21.8051H187.691L189.885 30.7632H190.041L195.191 21.8051H198.667L196.454 35.1381H193.72L195.165 26.4599H195.048L190.178 35.073H188.31L186.304 26.4274H186.194L184.735 35.1381H182.001L184.215 21.8051Z" fill="white"/>
<path d="M200.891 35.1381H197.87L204.687 21.8051H208.319L210.702 35.1381H207.681L206.06 24.8519H205.956L200.891 35.1381ZM201.581 29.8973H208.717L208.339 32.0978H201.204L201.581 29.8973Z" fill="white"/>
<path d="M217.252 30.5028H219.648L220.729 32.0522L221.712 33.4324L223.678 36.2318H221.048L219.7 34.3439L219.049 33.2241L217.252 30.5028ZM224.83 28.6539C224.587 30.0775 224.116 31.2862 223.417 32.2801C222.723 33.274 221.874 34.0292 220.872 34.5457C219.874 35.0622 218.797 35.3204 217.643 35.3204C216.432 35.3204 215.388 35.0448 214.511 34.4936C213.639 33.9424 213.007 33.146 212.617 32.1043C212.226 31.0583 212.152 29.7975 212.395 28.3219C212.63 26.8939 213.096 25.683 213.795 24.6891C214.494 23.6909 215.347 22.9314 216.354 22.4105C217.361 21.8854 218.443 21.6228 219.602 21.6228C220.805 21.6228 221.842 21.9006 222.714 22.4561C223.591 23.0117 224.222 23.8146 224.609 24.8649C224.999 25.9109 225.073 27.1739 224.83 28.6539ZM222.024 28.3219C222.176 27.4061 222.17 26.6379 222.005 26.0172C221.844 25.3922 221.549 24.9192 221.119 24.598C220.69 24.2768 220.147 24.1162 219.492 24.1162C218.78 24.1162 218.127 24.2942 217.532 24.6501C216.942 25.006 216.443 25.5225 216.035 26.1995C215.631 26.8722 215.351 27.6904 215.195 28.6539C215.039 29.574 215.043 30.3422 215.208 30.9585C215.377 31.5748 215.679 32.0414 216.113 32.3582C216.551 32.6707 217.096 32.827 217.747 32.827C218.454 32.827 219.101 32.6534 219.687 32.3061C220.277 31.9546 220.774 31.4446 221.178 30.7762C221.581 30.1035 221.864 29.2854 222.024 28.3219Z" fill="white"/>
</svg>
